<svg xmlns="http://www.w3.org/2000/svg" width="16" height="16" viewBox="0 0 16 16">
    <g transform="translate(-3 -164)">
        <circle cx="8" cy="8" r="8" fill="#cdd3da" transform="translate(3 164)"/>
        <path fill="#fff" d="M448.956 295.077a2.152 2.152 0 1 0-3.176 0 3.271 3.271 0 0 0-1.056.937 3.278 3.278 0 0 0-1.055-.937 2.154 2.154 0 1 0-3.177 0 3.246 3.246 0 0 0-1.67 2.827v.613a.606.606 0 1 0 1.211 0v-.617a2.044 2.044 0 0 1 4.086-.085c0 .029-.008.056-.008.085v.613a.7.7 0 0 0 .017.085v.04a.606.606 0 1 0 1.211 0v-.738c0-.029-.007-.056-.008-.085a2.044 2.044 0 0 1 4.085.085v.738a.606.606 0 1 0 1.211 0v-.738a3.246 3.246 0 0 0-1.671-2.823zm-6.876-2.383a.942.942 0 1 1-.942.942.943.943 0 0 1 .942-.942zm5.288 0a.942.942 0 1 1-.941.942.942.942 0 0 1 .941-.942z" transform="translate(-433.662 -124.292)"/>
    </g>
</svg>
