<svg xmlns="http://www.w3.org/2000/svg" width="16" height="16" viewBox="0 0 16 16">
    <defs>
        <style>
            .cls-2{fill:#fff}
        </style>
    </defs>
    <g id="icon" transform="translate(-3 -185)">
        <circle id="타원_33" cx="8" cy="8" r="8" fill="#cdd3da" transform="translate(3 185)"/>
        <g id="그룹_492" transform="translate(6.598 188.369)">
            <path id="패스_71" d="M459.83 290.8a4.465 4.465 0 1 0 4.465 4.466 4.471 4.471 0 0 0-4.465-4.466zm0 7.719a3.254 3.254 0 1 1 3.253-3.253 3.257 3.257 0 0 1-3.253 3.258z" class="cls-2" transform="translate(-455.364 -290.805)"/>
            <path id="패스_72" d="M460.388 294.675h-.626v-1.365a.606.606 0 0 0-1.211 0v1.971a.605.605 0 0 0 .606.606h1.232a.606.606 0 0 0 0-1.211z" class="cls-2" transform="translate(-454.691 -290.404)"/>
        </g>
    </g>
</svg>
