<svg xmlns="http://www.w3.org/2000/svg" width="15.5" height="21.817" viewBox="0 0 15.5 21.817">
    <defs>
        <style>
            .cls-2{fill:#285fe8}
        </style>
    </defs>
    <g id="그룹_459" transform="translate(-626.067 -157.486)">
        <path id="패스_53" fill="#75a8ea" d="M646.236 202.952l-1.47-.079a.842.842 0 0 0-.112-.106 1.026 1.026 0 0 0-.63-.208h-.059l-2.517.135-2.517-.135h-.059a1.026 1.026 0 0 0-.63.208.842.842 0 0 0-.112.106l-1.47.079a.844.844 0 0 0-.862.767v9.462a.756.756 0 0 0 .46.666 1.079 1.079 0 0 0 .921 0l4.269-2.057 4.269 2.057a1.08 1.08 0 0 0 .921 0 .756.756 0 0 0 .46-.666v-9.462a.844.844 0 0 0-.862-.767z" transform="translate(-7.412 -34.648)"/>
        <path id="패스_55" d="M641.465 162.407a1.382 1.382 0 0 0-.707-1.187l-6.369-3.559a1.382 1.382 0 0 0-1.381.019l-6.267 3.736a1.382 1.382 0 0 0-.674 1.206l.1 7.295a1.381 1.381 0 0 0 .708 1.186l6.368 3.559a1.382 1.382 0 0 0 1.381-.019l6.266-3.736a1.382 1.382 0 0 0 .674-1.206z" class="cls-2"/>
        <path id="패스_56" fill="#fff" d="M646.853 172.659a.988.988 0 0 0-.506-.85l-4.559-2.548a.989.989 0 0 0-.989.014l-4.486 2.674a.988.988 0 0 0-.482.863l.073 5.222a.989.989 0 0 0 .506.849l4.559 2.548a.989.989 0 0 0 .989-.014l4.486-2.674a.989.989 0 0 0 .482-.863z" transform="translate(-7.515 -8.968)"/>
        <path id="패스_57" d="M651.873 186.56l-2-1.049-2 1.051.38-2.223-1.616-1.574 2.232-.325 1-2.023 1 2.022 2.232.323-1.615 1.575z" class="cls-2" transform="translate(-15.839 -17.65)"/>
    </g>
</svg>
