<svg xmlns="http://www.w3.org/2000/svg" width="14" height="13.714" viewBox="0 0 14 13.714">
    <g>
        <path fill="#2b79fc" stroke="#2b79fc" d="M14.757 7.776h-4.269L9.191 3.7a.462.462 0 0 0-.882 0l-1.3 4.077h-4.3a.479.479 0 0 0-.464.489.378.378 0 0 0 .009.083.476.476 0 0 0 .194.345l3.508 2.6-1.341 4.126a.506.506 0 0 0 .16.55.438.438 0 0 0 .261.119.551.551 0 0 0 .29-.11l3.424-2.57 3.424 2.57a.527.527 0 0 0 .29.11.407.407 0 0 0 .258-.119.5.5 0 0 0 .16-.55l-1.346-4.12 3.479-2.628.084-.076a.524.524 0 0 0 .151-.327.5.5 0 0 0-.493-.493z" transform="translate(0.5 0.5) translate(-2.25 -3.375)"/>
    </g>
</svg>
