<svg xmlns="http://www.w3.org/2000/svg" width="14.657" height="14.331" viewBox="0 0 14.657 14.331">
    <path fill="#fe6262" stroke="#fe6262" d="M15.388 7.99H10.9L9.542 3.715a.486.486 0 0 0-.927 0L7.252 7.99H2.738a.5.5 0 0 0-.488.51.4.4 0 0 0 .009.087.5.5 0 0 0 .2.362l3.685 2.73L4.734 16a.53.53 0 0 0 .168.577.461.461 0 0 0 .274.125.58.58 0 0 0 .3-.115l3.6-2.7 3.6 2.7a.554.554 0 0 0 .3.115.428.428 0 0 0 .271-.125.523.523 0 0 0 .172-.577L12 11.682l3.66-2.756.088-.08a.549.549 0 0 0 .159-.343.528.528 0 0 0-.519-.513z" transform="translate(-1.75 -2.875)"/>
</svg>
