<svg xmlns="http://www.w3.org/2000/svg" width="104.163" height="90.89" viewBox="0 0 104.163 90.89">
    <defs>
        <filter id="kha62bedxa" width="104.163" height="90.89" x="0" y="0" filterUnits="userSpaceOnUse">
            <feOffset dx="3" dy="4"/>
            <feGaussianBlur result="blur" stdDeviation="4.5"/>
            <feFlood flood-opacity=".2"/>
            <feComposite in2="blur" operator="in"/>
            <feComposite in="SourceGraphic"/>
        </filter>
    </defs>
    <g>
        <g filter="url(#kha62bedxa)" transform="translate(-810.05 -235.124) matrix(1, 0, 0, 1, 810.05, 235.12)">
            <g fill="#ecf5d8" stroke-linecap="round" stroke-linejoin="round">
                <path d="M64.79 60.713l-2.339-1.58-17.934-12.116H22.758c-3.274 0-6.45-.642-9.442-1.907-2.89-1.222-5.483-2.971-7.71-5.198-2.228-2.228-3.977-4.822-5.199-7.71C-.858 29.21-1.5 26.031-1.5 22.757c0-3.274.642-6.451 1.907-9.443 1.222-2.889 2.97-5.483 5.198-7.71 2.228-2.227 4.822-3.976 7.71-5.198C16.308-.858 19.486-1.5 22.759-1.5h25.646c3.274 0 6.451.642 9.443 1.907 2.889 1.222 5.483 2.97 7.71 5.198 2.228 2.227 3.977 4.821 5.199 7.71 1.265 2.992 1.907 6.169 1.907 9.443 0 6.815-2.86 13.294-7.872 17.888v20.067z" transform="translate(13.5 12.5)"/>
                <path fill="#8c94af" d="M63.29 57.89V39.973c4.822-4.173 7.873-10.338 7.873-17.215C71.163 10.188 60.973 0 48.403 0H22.759C10.19 0 0 10.189 0 22.758c0 12.57 10.19 22.759 22.758 22.759h22.218L63.291 57.89m0 3c-.588 0-1.174-.173-1.68-.514l-17.553-11.86h-21.3c-3.476 0-6.85-.68-10.027-2.025-3.067-1.297-5.822-3.154-8.186-5.519-2.365-2.364-4.222-5.119-5.52-8.186C-2.317 29.608-3 26.234-3 22.758c0-3.476.682-6.85 2.026-10.027C.323 9.663 2.18 6.909 4.545 4.544 6.909 2.18 9.664.323 12.73-.975 15.91-2.319 19.282-3 22.758-3h25.646c3.476 0 6.85.681 10.027 2.025C61.5.323 64.253 2.18 66.618 4.545c2.365 2.364 4.222 5.118 5.52 8.186 1.344 3.177 2.025 6.551 2.025 10.027 0 7.012-2.853 13.69-7.872 18.536V57.89c0 1.11-.613 2.129-1.593 2.65-.441.234-.925.35-1.407.35z" transform="translate(13.5 12.5)"/>
            </g>
        </g>
        <path fill="#8c94af" d="M24.887 3.659a3.66 3.66 0 1 1 3.659 3.66 3.659 3.659 0 0 1-3.659-3.66zm-12.444 0A3.66 3.66 0 1 1 16.1 7.32a3.66 3.66 0 0 1-3.657-3.661zM0 3.659A3.66 3.66 0 1 1 3.66 7.32 3.659 3.659 0 0 1 0 3.659z" transform="translate(-810.05 -235.124) translate(843.4 266.555)"/>
    </g>
</svg>
