<svg xmlns="http://www.w3.org/2000/svg" id="그룹_478" width="10.587" height="7.895" viewBox="0 0 10.587 7.895">
    <defs>
        <style>
            .cls-1{fill:#2b79fc}
        </style>
    </defs>
    <path id="패스_63" d="M653.814 321.727l-4.079 2.341a.535.535 0 0 0-.225.251.508.508 0 0 0-.055.083l-1.436 2.668a.533.533 0 0 0 .327.766c.021.005.042.011.063.014l2.812.417a.541.541 0 0 0 .343-.063l4.491-2.577z" class="cls-1" transform="translate(-647.956 -320.378)"/>
    <path id="패스_64" d="M655.41 324.21l-1.7-2.982a.534.534 0 0 0-.728-.2l-.982.572 2.241 3.9.974-.559a.532.532 0 0 0 .25-.322.524.524 0 0 0-.055-.409z" class="cls-1" transform="translate(-644.894 -320.959)"/>
</svg>
