<svg xmlns="http://www.w3.org/2000/svg" width="12.866" height="15.139" viewBox="0 0 12.866 15.139">
    <defs>
        <style>
            .cls-1{fill:none;stroke:#fff;stroke-linecap:round;stroke-miterlimit:10}
        </style>
    </defs>
    <g id="그룹_549" transform="matrix(0.809, 0.588, -0.588, 0.809, 7.423, 0.698)">
        <path id="패스_84" d="M5.178 5.124V2.589A2.589 2.589 0 0 0 2.589 0 2.589 2.589 0 0 0 0 2.589V7.78" class="cls-1"/>
        <path id="패스_85" d="M0 0v5.188a3.817 3.817 0 0 0 3.817 3.817 3.817 3.817 0 0 0 3.817-3.817V1.2" class="cls-1" transform="translate(0 2.435)"/>
        <path id="패스_86" d="M0 0v3.324a1.361 1.361 0 0 0 1.361 1.361 1.361 1.361 0 0 0 1.361-1.361V.077" class="cls-1" transform="translate(2.456 4.205)"/>
    </g>
</svg>
