<svg xmlns="http://www.w3.org/2000/svg" viewBox="0 0 247.62 39.37"><defs><style>.cls-1{fill:#317ee6;}</style></defs><title>Asset 1</title><g id="Layer_2" data-name="Layer 2"><g id="Layer_1-2" data-name="Layer 1"><path class="cls-1" d="M44.76,14.41,31.35,1A3.12,3.12,0,0,0,27.1,1L23.93,4.13H22.21L18.07,0H15.28L.88,14.41a3,3,0,0,0,0,4.27L20.7,38.51a3.06,3.06,0,0,0,2.13.86A3,3,0,0,0,25,38.49L44.19,19.27l.58-.58A3.06,3.06,0,0,0,44.76,14.41ZM17.21,10.85a2.45,2.45,0,0,0,0,3.44l6,6a2.51,2.51,0,0,0,3.44,0l2.18-2.18h1.73l3.83,3.84v1.72L23.68,34.34H22L5,17.41V15.68L15.82,4.9h1.73l1.94,1.95V8.57Z"/><path class="cls-1" d="M157.49,2a2,2,0,0,0-2,2V33.06a2,2,0,1,0,3.95,0V4A2,2,0,0,0,157.49,2Z"/><path class="cls-1" d="M150.61,2H131.39a2,2,0,0,0,0,4h7.85A6.2,6.2,0,0,0,139,7.57V33.06a2,2,0,1,0,3.94,0V7.57C143,6.71,143.46,6,144,6h6.59a2,2,0,0,0,0-4Z"/><path class="cls-1" d="M107.42,32.79l-8.93-27h0a4.72,4.72,0,0,0-4.43-3.4,4.56,4.56,0,0,0-4.3,3.44l-8.43,27a2,2,0,0,0,.14,1.51,1.89,1.89,0,0,0,1.15,1,2,2,0,0,0,1.5-.13,2,2,0,0,0,1-1.17L93.53,7c.12-.39.34-.65.55-.66s.45.05.67.69l8.93,27a2,2,0,0,0,1.87,1.36,2,2,0,0,0,1.87-2.62Z"/><path class="cls-1" d="M127.68,19.2A10.12,10.12,0,0,0,121,16.53h-4.66a5,5,0,0,1-5.24-5.29,5,5,0,0,1,5-5.29h9.29a2,2,0,0,0,0-4h-9.3c-.09,0-9,.25-9,9.26,0,4.74,2.54,7,4.68,8.12a10.72,10.72,0,0,0,4.48,1.14H121A6.18,6.18,0,0,1,124.9,22a5.15,5.15,0,0,1,1.3,3.77,5.14,5.14,0,0,1-1.29,3.76A6.13,6.13,0,0,1,121,31.07H110.8a2,2,0,0,0,0,4H121a10.13,10.13,0,0,0,6.67-2.67,9,9,0,0,0,2.47-6.59A9,9,0,0,0,127.68,19.2Z"/><path class="cls-1" d="M77.62,31.13H72.07A12.32,12.32,0,0,1,59.85,18.75,13.08,13.08,0,0,1,72.12,5.85h5.49a1.94,1.94,0,0,0,0-3.87H72A17,17,0,0,0,56,18.75,16.18,16.18,0,0,0,72.07,35h5.55a1.94,1.94,0,0,0,0-3.88Z"/><path class="cls-1" d="M174.63,2c-5.58,0-11.58,3.74-11.58,12V32.86a2.22,2.22,0,1,0,4.44,0V13.91c0-5.53,3.85-7.49,7.14-7.49s7.13,2,7.13,7.57V32.86a2.23,2.23,0,0,0,4.45,0V13.91C186.21,5.71,180.21,2,174.63,2Z"/><path class="cls-1" d="M219.52,16.62h-11a2.23,2.23,0,0,0,0,4.45h8.21c.27,0,.31,0,.32,0s.08.12,0,.55c-1.3,7.18-7.13,9.73-11.73,9.73-6,0-12-3.87-12-12.5s6-12.47,12-12.47a2.22,2.22,0,1,0,0-4.44C197.45,2,189,7.27,189,18.89s8.5,16.94,16.39,16.94,16.4-5.31,16.4-17A2.2,2.2,0,0,0,219.52,16.62Z"/><path class="cls-1" d="M236,2c-5.58,0-11.58,3.74-11.58,12V32.86a2.22,2.22,0,0,0,4.44,0V13.91c0-5.53,3.85-7.49,7.14-7.49s7.14,2,7.14,7.57V32.86a2.22,2.22,0,0,0,4.44,0V13.91C247.62,5.71,241.62,2,236,2Z"/></g></g></svg>