<svg xmlns="http://www.w3.org/2000/svg" width="18" height="17" viewBox="0 0 18 17">
    <defs>
        <style>
            .cls-3{fill:none;stroke:#fff}
        </style>
    </defs>
    <g id="그룹_573" transform="translate(-247 -256)">
        <rect id="사각형_219" width="18" height="17" fill="#2b79fc" rx="3" transform="translate(247 256)"/>
        <g id="그룹_570">
            <g id="패스_101" fill="none" stroke="none" stroke-linecap="round" stroke-linejoin="round">
                <path d="M7038.229-616.763l4.375-2.962v7.439l-4.375-2.219-1.85 1.22v-4.659z" transform="translate(-6785 880.006)"/>
                <path fill="#fff" d="M7042.604-619.725l-4.375 2.962-1.85-1.18v4.658l1.85-1.22 4.375 2.218v-7.438m0-1c.16 0 .321.038.468.116.327.174.532.514.532.884v7.438c0 .348-.181.67-.477.853-.296.182-.665.196-.976.04l-3.857-1.957-1.365.9c-.307.204-.701.221-1.025.047-.323-.175-.526-.513-.526-.88v-4.66c0-.365.2-.701.52-.877.32-.175.71-.162 1.019.034l1.295.828 3.831-2.594c.168-.114.364-.172.56-.172z" transform="translate(-6785 880.006)"/>
            </g>
            <path id="선_48" d="M0 0L0 3.947" class="cls-3" transform="translate(253.001 262.026)"/>
        </g>
        <path id="선_49" d="M0 0L2 0" class="cls-3" transform="translate(260.5 264.5)"/>
    </g>
</svg>
