<svg xmlns="http://www.w3.org/2000/svg" width="19.5" height="18.5" viewBox="0 0 19.5 18.5">
    <g transform="translate(-52.25 -749.25)">
        <path fill="#fff" stroke="#8c94af" stroke-linecap="round" stroke-linejoin="round" stroke-width="1.5px" d="M7.125 15.125v-.5a6.933 6.933 0 0 1-1.386-.543l-.452.427a1.952 1.952 0 0 1-2.651 0 1.7 1.7 0 0 1 0-2.5l.452-.427a6.147 6.147 0 0 1-.574-1.308h-.743a1.771 1.771 0 1 1 0-3.542h.743a6.146 6.146 0 0 1 .574-1.312l-.452-.427a1.7 1.7 0 0 1 0-2.5 1.954 1.954 0 0 1 2.651 0l.452.427a6.932 6.932 0 0 1 1.386-.543v-.5a1.875 1.875 0 1 1 3.749 0v.5a6.932 6.932 0 0 1 1.385.542l.452-.427a1.952 1.952 0 0 1 2.651 0 1.7 1.7 0 0 1 0 2.5l-.451.426a6.145 6.145 0 0 1 .575 1.309h.743a1.771 1.771 0 1 1 0 3.542h-.743a6.147 6.147 0 0 1-.575 1.309l.452.427a1.7 1.7 0 0 1 0 2.5 1.953 1.953 0 0 1-2.65 0l-.452-.427a6.933 6.933 0 0 1-1.386.543v.5a1.875 1.875 0 1 1-3.749 0z" transform="translate(53 750)"/>
        <circle cx="2" cy="2" r="2" fill="#8c94af" transform="translate(60 757)"/>
    </g>
</svg>
